<svg xmlns="http://www.w3.org/2000/svg" xml:space="preserve" id="hitam" x="0" y="0" style="enable-background:new 0 0 193.3 42.6" version="1.1" viewBox="0 0.1 193.21 28.7">
  <style>
    .st1{fill:#ffffff}
  </style>
  <path d="M10 13.1c2-1.9 5.1-5.1 8-8.4 1.2-1.4 1.9-2.4 1.9-3 0-.4-.1-.6-1-.8-.3 0-.6-.1-.6-.4 0-.2.2-.3.6-.3 1.7 0 1.8.1 3.9.1 2.1 0 4.9-.1 5.3-.1.6 0 .8.1.8.3s-.2.3-.7.4c-.6.1-.9.1-1.3.2-1.8.4-3 1.5-4.8 3.2-1.7 1.6-5.9 6-6.9 7 1.4 2.3 7.6 9.7 10 12.3 2.2 2.3 3.2 3.1 3.9 3.4.7.3 1.1.4 1.7.5.5 0 .8.1.8.4 0 .3-.3.3-.7.3h-3.6c-4.9 0-6.6-.5-8.5-2.6-2-2.2-6.1-7.4-8.8-11.5v3.3c0 2.9 0 6.3.2 7.8.1.9.3 1.9 1.6 2 .5.1 1.1.1 1.6.1.4 0 .6.2.6.4s-.1.4-.7.4c-2.4 0-6.4-.1-6.7-.1-.2 0-4.4.1-5.6.1-.5 0-.7-.1-.7-.4 0-.3.3-.4.7-.4s.7 0 1.1-.1c1.1-.2 1.3-1.1 1.4-2.1.1-1.6.2-4.2.2-7.7v-6.5c0-5.7 0-6.8-.1-8-.1-1-.5-1.7-1.4-1.9C1.6.9 1.2.9.8.9.3.9 0 .8 0 .5 0 .3.3.2 1 .2c1.6 0 5.4.1 5.6.1.3 0 4.8-.1 6.2-.1.6 0 .8.1.8.3 0 .3-.2.4-.7.4-.3 0-.6 0-1.1.1-1.3.2-1.5 1-1.6 2.2s-.1 1.9-.1 7.7l-.1 2.2z" class="st1"/>
  <path d="M35.7 19.8c0-1.7-.4-2.3-1-3.4-1.5-2.6-4.5-7.5-5.6-9.1-1.4-2.1-1.7-2.3-2.8-2.5-.1 0-.5-.1-.7-.1-.4-.1-.5-.2-.5-.4s.3-.4.7-.4c1.6 0 4 .1 5.3.1.5 0 2.9-.1 5.1-.1.4 0 .6.1.6.3 0 .2-.1.3-.6.4-1 .1-1.2.4-1.2.6s.1.5.3.9c.5.9 4.5 7.9 5.1 8.8 2.4-4.3 3.7-6.7 4.3-8 .3-.7.6-1.1.6-1.5s-.1-.7-1.3-.9c-.3 0-.5-.1-.5-.4 0-.2.2-.4.7-.4 1.4 0 2.6.1 3.9.1.4 0 3.3-.1 3.9-.1.4 0 .6.1.6.3 0 .3-.2.4-.6.4-.5 0-.9.1-1.3.2-1 .4-1.3.9-1.9 1.6-1.1 1.3-5.9 9.3-6.3 10.6-.5 1.4-.5 2.7-.5 3v2.3c0 .5 0 1.6.1 3 .1.8.1 1.7 1.4 1.9.6.1 1.3.1 1.9.2.4 0 .6.2.6.4s-.1.4-.6.4c-2.4 0-5.5-.1-6.6-.1-1 0-3.8.1-5.4.1-.5 0-.7-.1-.7-.4 0-.1.1-.3.6-.3s.9-.1 1.1-.1c.9-.2 1.1-.8 1.2-1.7.1-1.4.1-2.7.1-3.2v-2.5zm20.4-6.6c0-5 0-5.9-.1-6.9-.1-.9-.3-1.4-1.1-1.6-.2-.1-.6-.1-1-.1s-.6-.1-.6-.4c0-.2.1-.4.7-.4 1.3 0 4.9.1 5 .1.2 0 4.4-.1 5.6-.1.6 0 .7.1.7.4s-.3.3-.7.4c-.3 0-.4 0-.7.1-.9.2-1.2.5-1.3 1.6-.1 1-.1 1.8-.1 6.8v5.6c0 2.4 0 5.5.2 6.9.1.8.3 1.4 1.3 1.6.4.1 1 .1 1.4.1.6 0 .7.2.7.4 0 .1-.1.3-.7.3-2.3 0-6.1-.1-6.3-.1-.1 0-3.9.1-5 .1-.6 0-.8-.1-.8-.4 0-.2.2-.4.6-.4.3 0 .6 0 1.1-.1.7-.1 1-.8 1.1-1.7.2-1.3.2-3.6.2-6.7l-.2-5.5zm12.9-6c-1-2.1-1.3-2.3-2.4-2.4 0 0-.6-.1-.8-.1-.3 0-.4-.2-.4-.4s.2-.4.6-.4c1.8 0 3.8.1 5.1.1 1.3 0 3.1-.1 5.9-.1.6 0 .7.1.7.4 0 .2-.2.3-.5.4-.4 0-.5.1-.8.1-1 .1-1.1.4-1.1.8s.1 1 .7 2.4c1.5 3.7 3.5 8.3 5 11.9 1.3-2.8 3.9-8.9 5.5-12.6.4-.9.5-1.3.5-1.6 0-.4-.2-.6-.9-.7-.4-.1-1-.1-1.3-.2-.5-.1-.6-.2-.6-.4s.2-.4.7-.4c2.3 0 4 .1 4.5.1s2.8-.1 3.9-.1c.5 0 .7.1.7.4 0 .2-.2.3-.6.4-.4 0-.9 0-1.4.3-.8.3-1.2 1-2.1 2.8-1.3 2.7-2.6 5.5-4.5 9.6-2.1 4.5-3.6 7.3-4.4 9-1 1.9-1.3 2.3-1.8 2.3-.4 0-.7-.4-1.3-1.9L69 7.2zm35 3.7c0-4.1 0-6.8-.1-8-.1-1-.4-1.7-1.3-1.9-.5-.1-1-.1-1.4-.1-.5 0-.7-.1-.7-.4 0-.2.1-.4.8-.4 1.6 0 5.4.1 6 .1 1.8 0 3.9-.1 5.6-.1 5 0 7.5 1.2 9 2.6.8.8 2 2.4 2 4.9 0 5.7-5.2 8.8-10.3 8.8-.3 0-.9 0-1.1-.1s-.4-.1-.4-.4c0-.2.1-.4.8-.4 3.1 0 4.6-2.4 4.6-5.7 0-2.6-.5-4.6-1.8-6-1-1-2.2-1.5-3.5-1.5-.5 0-.8 0-1 .1-.3.1-.4.3-.4.9v14.2c0 2.9 0 6.3.2 7.8.1 1.1.3 1.8 1.4 2 .5.1 1.2.1 1.6.2.6 0 .7.1.7.4 0 .2-.2.3-.7.3-2.6 0-6.5-.1-6.8-.1-.2 0-4.2.1-5.5.1-.5 0-.7-.1-.7-.4s.3-.4.7-.4c.4 0 .7-.1 1.1-.1.7-.1 1.1-.7 1.2-2.1.1-1.6.2-4.2.2-7.8l-.2-6.5zm20.6 5.2c0-6.7 4.6-12.7 14.3-12.7 8.4 0 13.7 5.7 13.7 12 0 7.5-5.2 13.2-14 13.2-9.8 0-14-6.8-14-12.5zm20.9.8c0-4.9-1.8-11.3-7.8-11.3-2.9 0-6.1 1.4-6.1 9 0 5.9 2.4 11.8 7.9 11.8 2.1 0 6-.8 6-9.5zm8.3 10.8c-.6-.2-.7-.7-.7-1.3 0-2.8.1-4 .2-5 .1-.6.3-.7.4-.7.2 0 .3.1.3.5 0 .3 0 .6.1.9.4 2.8 3.1 4.4 5.9 4.4 3 0 3.9-1.4 3.9-2.7s-.4-2.3-3.3-4.2l-2-1.4c-4-2.7-5-4.9-5-7.9 0-3.7 3.3-6.8 8.6-6.8 1.5 0 2.5.1 4 .4.5.1 1.1.2 1.7.4.3.1.4.2.4.5 0 1.2-.1 1.7-.1 4.7 0 .6-.1.8-.4.8-.2 0-.4-.1-.4-.6 0-.4-.1-1.1-.5-1.8-.7-1.2-2.4-2.3-4.6-2.3-2.8 0-3.7 1.6-3.7 2.9 0 1.4.7 2.4 2.5 3.5l1.9 1.2c4.8 3 6.1 4.8 6.1 8 0 2.6-1.1 4.8-3.7 6.2-2 1.1-4.3 1.3-6 1.3-2.6-.1-4.3-.5-5.6-1zm30.7-8.9c0 2.4 0 5.3.1 6.7.1.8.3 1.6 1.3 1.8.4.1.8.1 1.3.1.6.1.7.2.7.4s-.2.3-.8.3c-2.3 0-5.8-.1-6.3-.1s-4 .1-5 .1c-.6 0-.8-.1-.8-.3 0-.3.3-.4.7-.4.3 0 .7 0 1.1-.1.7-.1 1-.8 1.1-1.7.1-1.4.1-3.6.1-6.8V6.5c-1.3 0-3.4 0-5 .1-1.8.1-2.4.6-2.9 1.9-.1.2-.1.5-.3.7-.1.2-.2.5-.4.5-.3 0-.3-.3-.3-.7.2-1.6.5-3.2.7-4.7.1-.5.3-.7.4-.7.2 0 .4.1 1 .2.5.1 2.5.3 3.8.3h14.8c1 0 1.6-.1 2-.1.6-.1.9-.2 1.1-.2.4 0 .3.2.3 1.1 0 .4-.2 3.7-.3 4.5 0 .5-.2.7-.4.7s-.3-.2-.4-.6v-.8c-.1-1-.5-1.7-2.3-1.9-1.2-.1-3-.2-5.6-.2l.3 12.2z" class="st1"/>
</svg>
